<?xml version="1.0" encoding="UTF-8" standalone="no"?>
<!DOCTYPE svg PUBLIC "-//W3C//DTD SVG 1.1//EN" "http://www.w3.org/Graphics/SVG/1.1/DTD/svg11.dtd">
<svg width="100%" height="100%" viewBox="0 0 41 29" version="1.1" xmlns="http://www.w3.org/2000/svg" xmlns:xlink="http://www.w3.org/1999/xlink" xml:space="preserve" xmlns:serif="http://www.serif.com/" style="fill-rule:evenodd;clip-rule:evenodd;stroke-linejoin:round;stroke-miterlimit:2;">
    <g id="Artboard1" transform="matrix(1,0,0,1,-58,0.000015)">
        <rect x="58" y="-0" width="40.67" height="28.355" style="fill:none;"/>
        <clipPath id="_clip1">
            <rect x="58" y="-0" width="40.67" height="28.355"/>
        </clipPath>
        <g clip-path="url(#_clip1)">
            <g transform="matrix(1,0,0,1,58,-0.000015)">
                <path d="M14.361,0.249C14.728,0.249 14.967,0.609 14.822,0.951L6.917,20.327C6.818,20.472 6.748,20.594 6.725,20.716C6.678,20.837 6.678,20.931 6.678,21.029C6.678,21.244 6.754,21.419 6.899,21.535C7.045,21.657 7.214,21.703 7.388,21.703C7.487,21.703 7.609,21.68 7.726,21.634C7.849,21.587 7.993,21.511 8.163,21.418L12.153,18.835C12.567,18.568 13.202,18.255 14.052,17.872C14.902,17.512 15.852,17.315 16.923,17.315C18.065,17.315 18.991,17.53 19.719,17.994C20.447,18.453 20.983,19.033 21.35,19.759C21.717,20.484 21.886,21.28 21.886,22.173L21.886,27.415C21.886,27.775 21.595,28.042 21.251,28.042L16.48,28.042C16.113,28.042 15.845,27.752 15.845,27.415L15.845,25.023C15.845,24.611 15.746,24.251 15.578,23.938C15.408,23.624 15.065,23.479 14.529,23.479C14.36,23.479 14.162,23.526 13.97,23.601C13.777,23.671 13.556,23.793 13.334,23.961L8.786,27.031C8.18,27.42 7.498,27.758 6.817,27.995C6.112,28.239 5.384,28.355 4.581,28.355L4.581,28.32L4.581,28.32C3.609,28.32 2.735,28.053 1.955,27.548C1.396,27.188 0.958,26.677 0.615,26.097C0.201,25.371 0.003,24.552 0.003,23.683C-0.02,23.125 0.079,22.573 0.271,22.039C0.464,21.505 1.121,19.937 1.849,18.464L10.079,0.539C10.155,0.371 10.348,0.249 10.54,0.249L14.361,0.249ZM36.197,0.023L36.196,0.023C37.147,0.023 38.001,0.291 38.764,0.796C39.311,1.156 39.738,1.667 40.074,2.248C40.478,2.974 40.666,3.792 40.666,4.663C40.689,5.22 40.592,5.772 40.405,6.306C40.216,6.839 39.573,8.407 38.862,9.883L30.822,27.815C30.747,27.984 30.56,28.105 30.372,28.105L26.636,28.105C26.278,28.105 26.044,27.745 26.186,27.403L33.913,8.02C34.01,7.874 34.079,7.752 34.102,7.63C34.148,7.508 34.148,7.415 34.148,7.316C34.148,7.101 34.073,6.928 33.931,6.812C33.789,6.69 33.623,6.643 33.453,6.643C33.356,6.643 33.236,6.666 33.123,6.713C33.004,6.759 32.861,6.835 32.697,6.928L28.796,9.512C28.392,9.779 27.771,10.092 26.94,10.476C26.109,10.836 25.18,11.033 24.132,11.033C23.016,11.033 22.111,10.818 21.399,10.354C20.687,9.895 20.163,9.314 19.804,8.588C19.446,7.862 19.281,7.066 19.281,6.172L19.281,0.94C19.281,0.58 19.566,0.314 19.901,0.313L24.564,0.313C24.922,0.313 25.185,0.604 25.185,0.94L25.185,3.334C25.185,3.746 25.282,4.106 25.447,4.42C25.612,4.733 25.948,4.878 26.471,4.878C26.636,4.878 26.83,4.831 27.018,4.756C27.205,4.686 27.422,4.565 27.638,4.396L32.085,1.324C32.678,0.935 33.344,0.599 34.01,0.36C34.7,0.117 35.411,-0 36.197,-0L36.197,0.023Z" style="fill:url(#_Linear2);fill-rule:nonzero;"/>
            </g>
        </g>
    </g>
    <defs>
        <linearGradient id="_Linear2" x1="0" y1="0" x2="1" y2="0" gradientUnits="userSpaceOnUse" gradientTransform="matrix(28.19012,3.8618,-3.8618,28.19012,7.53678,10.412)"><stop offset="0" style="stop-color:rgb(22,232,174);stop-opacity:1"/><stop offset="0.52" style="stop-color:rgb(0,197,209);stop-opacity:1"/><stop offset="1" style="stop-color:rgb(90,77,251);stop-opacity:1"/></linearGradient>
    </defs>
</svg>
