<?xml version="1.0" encoding="UTF-8" standalone="no"?>
<!DOCTYPE svg PUBLIC "-//W3C//DTD SVG 1.1//EN" "http://www.w3.org/Graphics/SVG/1.1/DTD/svg11.dtd">
<svg width="100%" height="100%" viewBox="0 0 108 28" version="1.1" xmlns="http://www.w3.org/2000/svg" xmlns:xlink="http://www.w3.org/1999/xlink" xml:space="preserve" xmlns:serif="http://www.serif.com/" style="fill-rule:evenodd;clip-rule:evenodd;stroke-linejoin:round;stroke-miterlimit:2;">
    <g id="Artboard3" transform="matrix(1,0,0,1,220.999987,0)">
        <rect x="-221" y="0" width="107.799" height="28" style="fill:none;"/>
        <clipPath id="_clip1">
            <rect x="-221" y="0" width="107.799" height="28"/>
        </clipPath>
        <g clip-path="url(#_clip1)">
            <g transform="matrix(1,0,0,1,-220.999987,0)">
                <path d="M12.566,0.218C12.887,0.218 13.096,0.533 12.97,0.832L6.053,17.786C5.966,17.913 5.905,18.02 5.885,18.126C5.844,18.232 5.844,18.314 5.844,18.4C5.844,18.588 5.91,18.741 6.037,18.843C6.165,18.949 6.312,18.99 6.465,18.99C6.552,18.99 6.659,18.97 6.761,18.929C6.868,18.888 6.996,18.823 7.144,18.741L10.635,16.48C10.997,16.247 11.552,15.972 12.296,15.638C13.04,15.323 13.871,15.15 14.809,15.15C15.808,15.15 16.618,15.339 17.255,15.745C17.892,16.146 18.361,16.654 18.683,17.289C19.004,17.924 19.15,18.62 19.15,19.401L19.15,23.988C19.15,24.303 18.895,24.537 18.595,24.537L14.421,24.537C14.1,24.537 13.865,24.283 13.865,23.988L13.865,21.895C13.865,21.535 13.778,21.22 13.631,20.945C13.483,20.671 13.182,20.544 12.713,20.544C12.565,20.544 12.391,20.585 12.224,20.65C12.055,20.712 11.862,20.819 11.669,20.966L7.688,23.652C7.159,23.992 6.562,24.287 5.966,24.495C5.349,24.708 4.712,24.811 4.009,24.811L4.009,24.78L4.01,24.78C3.159,24.78 2.393,24.547 1.711,24.105C1.222,23.789 0.839,23.343 0.538,22.835C0.176,22.2 0.003,21.483 0.003,20.722C-0.017,20.234 0.07,19.751 0.237,19.284C0.406,18.817 0.981,17.445 1.618,16.156L8.82,0.472C8.887,0.324 9.055,0.218 9.224,0.218L12.566,0.218ZM31.673,0.021L31.672,0.021C32.504,0.021 33.251,0.254 33.919,0.696C34.397,1.011 34.77,1.458 35.065,1.967C35.418,2.602 35.583,3.318 35.583,4.08C35.603,4.568 35.518,5.051 35.355,5.518C35.19,5.985 34.626,7.356 34.004,8.647L26.97,24.338C26.905,24.485 26.74,24.592 26.575,24.592L23.308,24.592C22.994,24.592 22.788,24.277 22.913,23.977L29.675,7.017C29.759,6.89 29.819,6.783 29.84,6.677C29.88,6.57 29.88,6.488 29.88,6.402C29.88,6.214 29.814,6.062 29.69,5.96C29.566,5.853 29.421,5.812 29.271,5.812C29.187,5.813 29.083,5.833 28.983,5.874C28.879,5.915 28.754,5.981 28.609,6.062L25.197,8.323C24.843,8.557 24.299,8.83 23.572,9.166C22.845,9.481 22.033,9.654 21.116,9.654C20.14,9.654 19.347,9.465 18.725,9.059C18.102,8.657 17.643,8.149 17.329,7.514C17.015,6.879 16.871,6.183 16.871,5.4L16.871,0.823C16.871,0.508 17.121,0.274 17.414,0.274L21.494,0.274C21.808,0.275 22.037,0.529 22.037,0.823L22.037,2.917C22.037,3.277 22.122,3.593 22.267,3.867C22.411,4.141 22.705,4.269 23.163,4.269C23.307,4.269 23.477,4.228 23.642,4.162C23.805,4.101 23.995,3.994 24.184,3.847L28.075,1.159C28.594,0.819 29.177,0.524 29.76,0.315C30.363,0.102 30.985,0 31.673,0L31.673,0.021Z" style="fill:url(#_Linear2);fill-rule:nonzero;"/>
            </g>
            <g transform="matrix(1,0,0,1,-220.999987,0)">
                <path d="M52.365,4.705L52.365,10.47C52.365,10.564 52.286,10.643 52.191,10.643L45.522,10.643C45.427,10.643 45.348,10.564 45.348,10.47L45.348,4.705C45.348,4.471 45.159,4.278 44.922,4.278L42.5,4.278C42.267,4.278 42.074,4.471 42.074,4.705L42.074,19.84C42.074,20.074 42.263,20.267 42.5,20.267L44.922,20.267C45.156,20.267 45.348,20.074 45.348,19.84L45.348,14.079C45.348,13.984 45.427,13.905 45.522,13.905L52.188,13.905C52.283,13.905 52.362,13.984 52.362,14.079L52.362,19.843C52.362,20.077 52.552,20.27 52.789,20.27L55.21,20.27C55.447,20.27 55.637,20.077 55.637,19.843L55.637,4.705C55.637,4.471 55.447,4.278 55.21,4.278L52.789,4.278C52.552,4.278 52.362,4.468 52.362,4.705L52.365,4.705Z" style="fill:white;fill-rule:nonzero;"/>
            </g>
            <g transform="matrix(1,0,0,1,-220.999987,0)">
                <path d="M107.372,8.896L104.951,8.896C104.771,8.896 104.619,9.006 104.559,9.161C104.537,9.212 104.524,9.268 104.524,9.325L104.524,9.332C104.524,9.354 104.524,9.376 104.521,9.395C104.508,9.61 104.344,9.66 104.202,9.575C103.737,9.303 103.472,9.145 102.997,9.05C102.64,8.981 102.324,8.962 101.989,8.962C98.847,8.962 96.303,11.506 96.3,14.65C96.353,17.748 98.879,20.238 101.989,20.238C102.324,20.238 102.64,20.219 102.997,20.149C103.472,20.058 103.737,19.9 104.202,19.628C104.353,19.536 104.53,19.691 104.524,19.871C104.524,20.112 104.714,20.301 104.951,20.301L107.372,20.301C107.609,20.301 107.799,20.112 107.799,19.875L107.799,9.322C107.799,9.085 107.609,8.896 107.372,8.896ZM103.013,16.803L103.001,16.803C102.694,16.945 102.35,17.024 101.989,17.024C100.63,17.024 99.53,15.924 99.53,14.568C99.53,13.213 100.63,12.11 101.989,12.11C102.862,12.11 103.626,12.565 104.063,13.254L104.069,13.26C104.306,13.639 104.445,14.088 104.445,14.568C104.445,15.557 103.857,16.411 103.013,16.8L103.013,16.803Z" style="fill:white;fill-rule:nonzero;"/>
            </g>
            <g transform="matrix(1,0,0,1,-220.999987,0)">
                <path d="M94.571,12.037C94.982,12.837 95.168,13.731 95.168,14.629L95.168,19.865C95.168,20.099 94.978,20.289 94.742,20.289L92.32,20.289C92.134,20.289 91.976,20.169 91.916,20.004L91.897,14.635C91.859,13.276 90.797,12.179 89.441,12.179C89.081,12.179 88.736,12.258 88.429,12.397C88.426,12.397 88.423,12.397 88.42,12.401C87.573,12.789 86.988,13.643 86.988,14.632L86.988,19.805C86.979,19.821 86.975,19.84 86.975,19.859C86.975,19.976 86.928,20.083 86.849,20.159C86.83,20.178 86.808,20.197 86.786,20.213C86.751,20.235 86.716,20.254 86.675,20.267C86.666,20.27 86.656,20.273 86.644,20.273C86.634,20.276 86.621,20.279 86.612,20.279C86.59,20.282 86.571,20.286 86.546,20.286L84.124,20.286C84.08,20.286 84.039,20.279 83.998,20.267C83.985,20.264 83.973,20.26 83.96,20.254C83.909,20.232 83.862,20.2 83.824,20.162C83.745,20.087 83.698,19.979 83.698,19.862L83.698,4.673C83.698,4.44 83.887,4.25 84.128,4.25L86.549,4.25C86.764,4.25 86.941,4.408 86.969,4.613C86.96,5.944 86.934,9.382 86.975,9.367C86.979,9.367 86.985,9.363 86.988,9.36C87.01,9.411 87.073,9.439 87.13,9.417C87.563,9.234 88.022,9.104 88.502,9.038C88.512,9.038 88.521,9.038 88.527,9.035C88.847,8.978 89.175,8.949 89.51,8.949C91.717,8.949 93.629,10.204 94.574,12.037L94.571,12.037Z" style="fill:white;fill-rule:nonzero;"/>
            </g>
            <g transform="matrix(1,0,0,1,-220.999987,0)">
                <path d="M82.494,13.902C82.2,11.222 79.984,9.085 77.297,8.877C76.713,8.832 76.169,8.858 75.638,8.984C75.572,9 75.502,9.016 75.439,9.035C75.417,9.041 75.391,9.044 75.369,9.054C75.243,9.095 75.132,9.142 75.025,9.199C74.759,9.325 74.57,9.461 74.465,9.55C74.371,9.597 74.32,9.543 74.314,9.477C74.314,9.477 74.31,9.42 74.298,9.272C74.272,9.06 74.092,8.902 73.877,8.902L71.456,8.902C71.219,8.902 71.026,9.095 71.026,9.332L71.026,24.524C71.026,24.757 71.219,24.947 71.456,24.947L73.88,24.947C74.114,24.947 74.304,24.757 74.304,24.524L74.304,19.878C74.298,19.698 74.472,19.543 74.626,19.634C75.091,19.906 75.357,20.064 75.831,20.156C76.188,20.226 76.504,20.244 76.839,20.244C80.193,20.244 82.87,17.34 82.494,13.908L82.494,13.902ZM76.839,17.027C76.475,17.027 76.134,16.948 75.824,16.806L75.815,16.806C74.968,16.417 74.383,15.564 74.383,14.575C74.383,14.094 74.519,13.646 74.759,13.266C74.759,13.263 74.759,13.263 74.766,13.26C75.199,12.571 75.967,12.116 76.839,12.116C78.195,12.116 79.295,13.216 79.295,14.575C79.295,15.934 78.195,17.03 76.839,17.03L76.839,17.027Z" style="fill:white;fill-rule:nonzero;"/>
            </g>
            <g transform="matrix(1,0,0,1,-220.999987,0)">
                <path d="M69.044,8.981C69.007,8.943 68.962,8.911 68.909,8.889C68.896,8.883 68.883,8.88 68.871,8.876C68.829,8.864 68.788,8.857 68.744,8.857L66.323,8.857C66.301,8.857 66.279,8.857 66.257,8.864C66.247,8.864 66.234,8.867 66.225,8.87C66.216,8.87 66.206,8.873 66.193,8.876C66.152,8.889 66.114,8.908 66.083,8.93C66.061,8.946 66.042,8.965 66.02,8.984C65.941,9.06 65.893,9.167 65.893,9.284C65.893,9.303 65.89,9.322 65.884,9.338L65.884,14.533L65.884,14.514C65.88,15.507 65.293,16.36 64.449,16.746C64.445,16.746 64.442,16.749 64.439,16.749C64.133,16.891 63.788,16.967 63.428,16.967C62.069,16.967 60.972,15.867 60.972,14.511L60.953,9.142C60.896,8.974 60.738,8.857 60.548,8.857L58.127,8.857C57.893,8.857 57.7,9.05 57.7,9.284L57.7,14.521C57.7,15.418 57.887,16.313 58.298,17.112C59.243,18.945 61.155,20.2 63.361,20.2C63.696,20.2 64.025,20.172 64.344,20.115C64.351,20.115 64.36,20.115 64.37,20.111C64.85,20.045 65.308,19.916 65.741,19.732C65.798,19.71 65.862,19.738 65.884,19.789C65.887,19.789 65.893,19.786 65.896,19.783C65.903,19.783 65.944,24.438 65.944,24.438C65.944,24.533 65.9,24.621 65.82,24.672C65.726,24.732 65.542,24.735 65.448,24.684L59.885,21.622C58.772,21.009 57.451,21.028 56.354,21.673C55.257,22.317 54.606,23.458 54.606,24.726L54.606,26.587C54.606,26.792 54.774,26.96 54.979,26.96L57.555,26.96C57.761,26.96 57.928,26.792 57.928,26.587L57.928,24.707C57.928,24.612 57.96,24.523 58.039,24.473C58.054,24.463 58.067,24.457 58.083,24.451C58.156,24.425 58.228,24.435 58.301,24.476L63.892,27.554C64.433,27.851 65.024,28 65.615,28C66.238,28 66.86,27.835 67.423,27.503C68.501,26.868 69.149,25.759 69.171,24.517L69.171,9.278C69.171,9.161 69.124,9.053 69.048,8.978L69.044,8.981Z" style="fill:white;fill-rule:nonzero;"/>
            </g>
        </g>
    </g>
    <defs>
        <linearGradient id="_Linear2" x1="0" y1="0" x2="1" y2="0" gradientUnits="userSpaceOnUse" gradientTransform="matrix(24.66624,3.37893,-3.37893,24.66624,6.59466,9.11067)"><stop offset="0" style="stop-color:rgb(22,232,174);stop-opacity:1"/><stop offset="0.52" style="stop-color:rgb(0,197,209);stop-opacity:1"/><stop offset="1" style="stop-color:rgb(90,77,251);stop-opacity:1"/></linearGradient>
    </defs>
</svg>
